<svg xmlns="http://www.w3.org/2000/svg" viewBox="0 0 64 74">
  <rect width="64" height="74" rx="14" fill="#13253b"/>
  <path d="M32 4C19.1 4 8.7 14.6 8.7 27.7c0 15.7 14.1 27.1 20.3 31.2h6c6.2-4.1 20.3-15.5 20.3-31.2C55.3 14.6 44.9 4 32 4Z" fill="#e9695b"/>
  <path d="M27.7 6.1C19.9 10 15.1 18.1 15.1 28c0 11.4 6.4 20.7 13.7 27.1-2.7-7.1-4.2-16.6-4.2-27.1 0-8.8 1.1-16.5 3.1-21.9Z" fill="#f3b23c"/>
  <path d="M36.3 6.1c2 5.4 3.1 13.1 3.1 21.9 0 10.5-1.5 20-4.2 27.1C42.5 48.7 48.9 39.4 48.9 28c0-9.9-4.8-18-12.6-21.9Z" fill="#0f8f8d"/>
  <path d="M25.5 57.9 22 68.2M38.5 57.9 42 68.2" fill="none" stroke="#f7f1df" stroke-linecap="round" stroke-width="2.4"/>
  <rect x="22.4" y="63.4" width="19.2" height="9" rx="2.5" fill="#7a4d2a"/>
</svg>
